# Vertices
v -3.000000 -1.500000 3.000000
v -3.000000 -1.500000 -3.000000
v -3.000000 1.500000 -3.000000
v -3.000000 1.500000 3.000000
v 3.000000 -1.500000 3.000000
v 3.000000 -1.500000 -3.000000
v 3.000000 1.500000 -3.000000
v 3.000000 1.500000 3.000000
v -4.107904 -1.405679 2.886801
v -4.107904 -1.228721 -3.000000
v -4.107904 1.500000 -3.000000
v -4.107904 1.500000 2.593530
v 4.107904 -1.405679 2.886801
v 4.107904 -1.228721 -3.000000
v 4.107904 1.500000 -3.000000
v 4.107904 1.500000 2.593530
v -4.953914 -1.405679 2.361180
v -4.953914 -0.656645 -2.442225
v -4.953914 1.500000 -2.662801
v -4.953914 1.500000 2.593530
v 4.953914 -1.405679 2.361180
v 4.953914 -0.656645 -2.442225
v 4.953914 1.500000 -2.662801
v 4.953914 1.500000 2.593530
v -5.533085 -1.405679 1.939622
v -5.533085 -1.169484 -2.442225
v -5.533085 1.208249 -2.662801
v -5.533085 1.500000 2.593530
v 5.533085 -1.405679 1.939622
v 5.533085 -1.169484 -2.442225
v 5.533085 1.208249 -2.662801
v 5.533085 1.500000 2.593530
v -6.231764 -1.531440 1.773082
v -6.231764 -0.810037 -1.934660
v -6.231764 1.045610 -2.774975
v -6.231764 1.385537 2.189807
v 6.231764 -1.531440 1.773082
v 6.231764 -0.810037 -1.934660
v 6.231764 1.045610 -2.774975
v 6.231764 1.385537 2.189807
v -7.010590 -1.006076 1.622968
v -7.010590 -0.810037 -1.934660
v -7.010590 0.531910 -2.759447
v -7.010590 1.260363 1.750450
v 7.010590 -1.006076 1.622968
v 7.010590 -0.810037 -1.934660
v 7.010590 0.531910 -2.759447
v 7.010590 1.260363 1.750450
v -7.760000 -1.006076 1.407355
v -7.760000 -0.810037 -2.198944
v -7.760000 0.531910 -2.759447
v -7.760000 1.260363 1.750450
v 7.760000 -1.006076 1.407355
v 7.760000 -0.810037 -2.198944
v 7.760000 0.531910 -2.759447
v 7.760000 1.260363 1.750450
v -8.424564 -0.759371 1.407355
v -8.424564 -0.325104 -1.623225
v -8.424564 0.531910 -2.267574
v -8.424564 0.758785 1.378900
v 8.424564 -0.759371 1.407355
v 8.424564 -0.325104 -1.623225
v 8.424564 0.531910 -2.267574
v 8.424564 0.758785 1.378900
v -9.158318 -0.815805 1.080630
v -9.158318 -0.190957 -1.714670
v -9.158318 0.493805 -2.267574
v -9.158318 0.787533 1.378900
v 9.158318 -0.815805 1.080630
v 9.158318 -0.190957 -1.714670
v 9.158318 0.493805 -2.267574
v 9.158318 0.787533 1.378900
v -10.181350 -0.815805 0.534648
v -10.181350 -0.190957 -1.714670
v -10.181350 0.493805 -2.254701
v -10.181350 0.787533 0.847310
v 10.181350 -0.815805 0.534648
v 10.181350 -0.190957 -1.714670
v 10.181350 0.493805 -2.254701
v 10.181350 0.787533 0.847310
v -11.037687 -0.261803 0.724699
v -11.037687 -0.190957 -1.686123
v -11.037687 0.115442 -1.808313
v -11.037687 0.787533 0.637062
v 11.037687 -0.261803 0.724699
v 11.037687 -0.190957 -1.686123
v 11.037687 0.115442 -1.808313
v 11.037687 0.787533 0.637062
v -11.645205 -0.100000 0.564733
v -11.645205 -0.535389 -1.290530
v -11.645205 0.115442 -1.664974
v -11.645205 0.354292 0.637062
v 11.645205 -0.100000 0.564733
v 11.645205 -0.535389 -1.290530
v 11.645205 0.115442 -1.664974
v 11.645205 0.354292 0.637062
v -12.530794 -0.100000 0.386547
v -12.530794 -0.535389 -1.233784
v -12.530794 0.115442 -1.457344
v -12.530794 0.100000 0.467867
v 12.530794 -0.100000 0.386547
v 12.530794 -0.535389 -1.233784
v 12.530794 0.115442 -1.457344
v 12.530794 0.100000 0.467867
v -13.326485 -0.100000 0.326377
v -13.326485 -0.535389 -0.700912
v -13.326485 0.100000 -1.014014
v -13.326485 0.100000 0.467867
v 13.326485 -0.100000 0.326377
v 13.326485 -0.535389 -0.700912
v 13.326485 0.100000 -1.014014
v 13.326485 0.100000 0.467867
v -13.889561 -0.100000 0.326377
v -13.889561 -0.535389 -0.700912
v -13.889561 0.100000 -1.014014
v -13.889561 0.100000 0.467867
v 13.889561 -0.100000 0.326377
v 13.889561 -0.535389 -0.700912
v 13.889561 0.100000 -1.014014
v 13.889561 0.100000 0.467867
v -14.379493 -0.100000 0.326377
v -14.379493 -0.993020 -0.178258
v -14.379493 0.623972 -1.014014
v -14.379493 0.100000 0.467867
v 14.379493 -0.100000 0.326377
v 14.379493 -0.993020 -0.178258
v 14.379493 0.623972 -1.014014
v 14.379493 0.100000 0.467867
v 2.963872 -1.500000 3.486883
v -2.963872 -1.500000 3.486883
v -2.444368 1.229472 3.486883
v 2.444368 1.229472 3.486883
v 2.963872 -1.157472 3.990246
v -2.963872 -1.157472 3.990246
v -2.895187 0.782278 3.990246
v 2.895187 0.782278 3.990246
v 2.863381 -1.157472 4.869051
v -2.863381 -1.157472 4.869051
v -2.895187 0.782278 4.869051
v 2.895187 0.782278 4.869051
v 2.717295 -1.000000 5.952977
v -2.717295 -1.000000 5.952977
v -2.895187 0.680377 5.952977
v 2.895187 0.680377 5.952977
v 2.717295 -1.483706 6.782342
v -2.717295 -1.483706 6.782342
v -2.612354 0.680377 6.782342
v 2.612354 0.680377 6.782342
v 2.387182 -1.483706 7.622913
v -2.387182 -1.483706 7.622913
v -2.579449 0.648845 7.622913
v 2.579449 0.648845 7.622913
v 2.387182 -1.483706 8.316730
v -2.387182 -1.483706 8.316730
v -2.425288 0.261235 8.316730
v 2.425288 0.261235 8.316730
v 1.846254 -1.077914 9.476767
v -1.846254 -1.077914 9.476767
v -2.425288 -0.248601 9.476767
v 2.425288 -0.248601 9.476767
v 1.846254 -1.000000 9.925279
v -1.846254 -1.000000 9.925279
v -2.536015 0.033189 9.925279
v 2.536015 0.033189 9.925279
v 1.539799 -1.000000 10.780407
v -1.539799 -1.000000 10.780407
v -2.536015 0.033189 10.780407
v 2.536015 0.033189 10.780407
# Vertex Normals
vn -3.000000 -1.500000 3.000000
vn -3.000000 -1.500000 -3.000000
vn -3.000000 1.500000 -3.000000
vn -3.000000 1.500000 3.000000
vn 3.000000 -1.500000 3.000000
vn 3.000000 -1.500000 -3.000000
vn 3.000000 1.500000 -3.000000
vn 3.000000 1.500000 3.000000
vn 0.000000 -1.497079 3.016718
vn 0.000000 -1.320121 -2.870083
vn 0.000000 1.408600 -2.870083
vn 0.000000 1.408600 2.723447
vn 0.000000 -1.497079 3.016718
vn 0.000000 -1.320121 -2.870083
vn 0.000000 1.408600 -2.870083
vn 0.000000 1.408600 2.723447
vn 0.000000 -1.640098 2.398759
vn 0.000000 -0.891064 -2.404646
vn 0.000000 1.265581 -2.625222
vn 0.000000 1.265581 2.631109
vn 0.000000 -1.640098 2.398759
vn 0.000000 -0.891064 -2.404646
vn 0.000000 1.265581 -2.625222
vn 0.000000 1.265581 2.631109
vn 0.000000 -1.438951 2.082591
vn 0.000000 -1.202756 -2.299257
vn 0.000000 1.174978 -2.519833
vn 0.000000 1.466729 2.736499
vn 0.000000 -1.438951 2.082591
vn 0.000000 -1.202756 -2.299257
vn 0.000000 1.174978 -2.519833
vn 0.000000 1.466729 2.736499
vn 0.000000 -1.553858 1.959769
vn 0.000000 -0.832455 -1.747974
vn 0.000000 1.023192 -2.588289
vn 0.000000 1.363120 2.376493
vn 0.000000 -1.553858 1.959769
vn 0.000000 -0.832455 -1.747974
vn 0.000000 1.023192 -2.588289
vn 0.000000 1.363120 2.376493
vn 0.000000 -1.000116 1.953140
vn 0.000000 -0.804077 -1.604488
vn 0.000000 0.537870 -2.429275
vn 0.000000 1.266323 2.080622
vn 0.000000 -1.000116 1.953140
vn 0.000000 -0.804077 -1.604488
vn 0.000000 0.537870 -2.429275
vn 0.000000 1.266323 2.080622
vn 0.000000 -1.000116 1.857501
vn 0.000000 -0.804077 -1.748798
vn 0.000000 0.537870 -2.309301
vn 0.000000 1.266323 2.200597
vn 0.000000 -1.000116 1.857501
vn 0.000000 -0.804077 -1.748798
vn 0.000000 0.537870 -2.309301
vn 0.000000 1.266323 2.200597
vn 0.000000 -0.810926 1.683491
vn 0.000000 -0.376659 -1.347089
vn 0.000000 0.480355 -1.991438
vn 0.000000 0.707230 1.655036
vn 0.000000 -0.810926 1.683491
vn 0.000000 -0.376659 -1.347089
vn 0.000000 0.480355 -1.991438
vn 0.000000 0.707230 1.655036
vn 0.000000 -0.884449 1.461309
vn 0.000000 -0.259601 -1.333992
vn 0.000000 0.425161 -1.886895
vn 0.000000 0.718889 1.759578
vn 0.000000 -0.884449 1.461309
vn 0.000000 -0.259601 -1.333992
vn 0.000000 0.425161 -1.886895
vn 0.000000 0.718889 1.759578
vn 0.000000 -0.884449 1.181501
vn 0.000000 -0.259601 -1.067817
vn 0.000000 0.425161 -1.607848
vn 0.000000 0.718889 1.494163
vn 0.000000 -0.884449 1.181501
vn 0.000000 -0.259601 -1.067817
vn 0.000000 0.425161 -1.607848
vn 0.000000 0.718889 1.494163
vn 0.000000 -0.374357 1.257868
vn 0.000000 -0.303511 -1.152954
vn 0.000000 0.002888 -1.275144
vn 0.000000 0.674979 1.170231
vn 0.000000 -0.374357 1.257868
vn 0.000000 -0.303511 -1.152954
vn 0.000000 0.002888 -1.275144
vn 0.000000 0.674979 1.170231
vn 0.000000 -0.058586 1.003160
vn 0.000000 -0.493976 -0.852103
vn 0.000000 0.156856 -1.226547
vn 0.000000 0.395706 1.075489
vn 0.000000 -0.058586 1.003160
vn 0.000000 -0.493976 -0.852103
vn 0.000000 0.156856 -1.226547
vn 0.000000 0.395706 1.075489
vn 0.000000 0.004987 0.845726
vn 0.000000 -0.430402 -0.774606
vn 0.000000 0.220429 -0.998166
vn 0.000000 0.204987 0.927046
vn 0.000000 0.004987 0.845726
vn 0.000000 -0.430402 -0.774606
vn 0.000000 0.220429 -0.998166
vn 0.000000 0.204987 0.927046
vn 0.000000 0.008847 0.556548
vn 0.000000 -0.426542 -0.470742
vn 0.000000 0.208847 -0.783844
vn 0.000000 0.208847 0.698038
vn 0.000000 0.008847 0.556548
vn 0.000000 -0.426542 -0.470742
vn 0.000000 0.208847 -0.783844
vn 0.000000 0.208847 0.698038
vn 0.000000 0.008847 0.556548
vn 0.000000 -0.426542 -0.470742
vn 0.000000 0.208847 -0.783844
vn 0.000000 0.208847 0.698038
vn 0.000000 0.008847 0.556548
vn 0.000000 -0.426542 -0.470742
vn 0.000000 0.208847 -0.783844
vn 0.000000 0.208847 0.698038
vn 0.000000 -0.007738 0.425884
vn 0.000000 -0.900758 -0.078751
vn 0.000000 0.716234 -0.914507
vn 0.000000 0.192262 0.567374
vn 0.000000 -0.007738 0.425884
vn 0.000000 -0.900758 -0.078751
vn 0.000000 0.716234 -0.914507
vn 0.000000 0.192262 0.567374
vn 2.963872 -1.364736 -0.243442
vn -2.963872 -1.364736 -0.243442
vn -2.444368 1.364736 -0.243442
vn 2.444368 1.364736 -0.243442
vn 2.963872 -0.969875 -0.251682
vn -2.963872 -0.969875 -0.251682
vn -2.895187 0.969875 -0.251682
vn 2.895187 0.969875 -0.251682
vn 2.863381 -0.969875 -0.439403
vn -2.863381 -0.969875 -0.439403
vn -2.895187 0.969875 -0.439403
vn 2.895187 0.969875 -0.439403
vn 2.717295 -0.840188 -0.541963
vn -2.717295 -0.840188 -0.541963
vn -2.895187 0.840188 -0.541963
vn 2.895187 0.840188 -0.541963
vn 2.717295 -1.082041 -0.414682
vn -2.717295 -1.082041 -0.414682
vn -2.612354 1.082041 -0.414682
vn 2.612354 1.082041 -0.414682
vn 2.387182 -1.066275 -0.420286
vn -2.387182 -1.066275 -0.420286
vn -2.579449 1.066275 -0.420286
vn 2.579449 1.066275 -0.420286
vn 2.387182 -0.872471 -0.346909
vn -2.387182 -0.872471 -0.346909
vn -2.425288 0.872471 -0.346909
vn 2.425288 0.872471 -0.346909
vn 1.846254 -0.414656 -0.580018
vn -1.846254 -0.414656 -0.580018
vn -2.425288 0.414656 -0.580018
vn 2.425288 0.414656 -0.580018
vn 1.846254 -0.516594 -0.224257
vn -1.846254 -0.516594 -0.224257
vn -2.536015 0.516594 -0.224257
vn 2.536015 0.516594 -0.224257
vn 1.539799 -0.516594 -0.427565
vn -1.539799 -0.516594 -0.427565
vn -2.536015 0.516594 -0.427565
vn 2.536015 0.516594 -0.427565
# Faces
f 4//4 7//7 3//3
f 7//7 4//4 8//8
f 2//2 3//3 7//7
f 2//2 7//7 6//6
f 1//1 2//2 6//6
f 1//1 6//6 5//5
f 4//4 9//9 1//1
f 9//9 4//4 12//12
f 3//3 12//12 4//4
f 3//3 11//11 12//12
f 3//3 10//10 11//11
f 3//3 2//2 10//10
f 9//9 10//10 1//1
f 2//2 1//1 10//10
f 8//8 5//5 13//13
f 13//13 16//16 8//8
f 7//7 8//8 16//16
f 7//7 16//16 15//15
f 7//7 15//15 14//14
f 7//7 14//14 6//6
f 13//13 5//5 14//14
f 6//6 14//14 5//5
f 12//12 17//17 9//9
f 17//17 12//12 20//20
f 11//11 20//20 12//12
f 11//11 19//19 20//20
f 11//11 18//18 19//19
f 11//11 10//10 18//18
f 17//17 18//18 9//9
f 10//10 9//9 18//18
f 16//16 13//13 21//21
f 21//21 24//24 16//16
f 15//15 16//16 24//24
f 15//15 24//24 23//23
f 15//15 23//23 22//22
f 15//15 22//22 14//14
f 21//21 13//13 22//22
f 14//14 22//22 13//13
f 20//20 25//25 17//17
f 25//25 20//20 28//28
f 19//19 28//28 20//20
f 19//19 27//27 28//28
f 19//19 26//26 27//27
f 19//19 18//18 26//26
f 25//25 26//26 17//17
f 18//18 17//17 26//26
f 24//24 21//21 29//29
f 29//29 32//32 24//24
f 23//23 24//24 32//32
f 23//23 32//32 31//31
f 23//23 31//31 30//30
f 23//23 30//30 22//22
f 29//29 21//21 30//30
f 22//22 30//30 21//21
f 28//28 33//33 25//25
f 33//33 28//28 36//36
f 27//27 36//36 28//28
f 27//27 35//35 36//36
f 27//27 34//34 35//35
f 27//27 26//26 34//34
f 33//33 34//34 25//25
f 26//26 25//25 34//34
f 32//32 29//29 37//37
f 37//37 40//40 32//32
f 31//31 32//32 40//40
f 31//31 40//40 39//39
f 31//31 39//39 38//38
f 31//31 38//38 30//30
f 37//37 29//29 38//38
f 30//30 38//38 29//29
f 36//36 41//41 33//33
f 41//41 36//36 44//44
f 35//35 44//44 36//36
f 35//35 43//43 44//44
f 35//35 42//42 43//43
f 35//35 34//34 42//42
f 41//41 42//42 33//33
f 34//34 33//33 42//42
f 40//40 37//37 45//45
f 45//45 48//48 40//40
f 39//39 40//40 48//48
f 39//39 48//48 47//47
f 39//39 47//47 46//46
f 39//39 46//46 38//38
f 45//45 37//37 46//46
f 38//38 46//46 37//37
f 44//44 49//49 41//41
f 49//49 44//44 52//52
f 43//43 52//52 44//44
f 43//43 51//51 52//52
f 43//43 50//50 51//51
f 43//43 42//42 50//50
f 49//49 50//50 41//41
f 42//42 41//41 50//50
f 48//48 45//45 53//53
f 53//53 56//56 48//48
f 47//47 48//48 56//56
f 47//47 56//56 55//55
f 47//47 55//55 54//54
f 47//47 54//54 46//46
f 53//53 45//45 54//54
f 46//46 54//54 45//45
f 52//52 57//57 49//49
f 57//57 52//52 60//60
f 51//51 60//60 52//52
f 51//51 59//59 60//60
f 51//51 58//58 59//59
f 51//51 50//50 58//58
f 57//57 58//58 49//49
f 50//50 49//49 58//58
f 56//56 53//53 61//61
f 61//61 64//64 56//56
f 55//55 56//56 64//64
f 55//55 64//64 63//63
f 55//55 63//63 62//62
f 55//55 62//62 54//54
f 61//61 53//53 62//62
f 54//54 62//62 53//53
f 60//60 65//65 57//57
f 65//65 60//60 68//68
f 59//59 68//68 60//60
f 59//59 67//67 68//68
f 59//59 66//66 67//67
f 59//59 58//58 66//66
f 65//65 66//66 57//57
f 58//58 57//57 66//66
f 64//64 61//61 69//69
f 69//69 72//72 64//64
f 63//63 64//64 72//72
f 63//63 72//72 71//71
f 63//63 71//71 70//70
f 63//63 70//70 62//62
f 69//69 61//61 70//70
f 62//62 70//70 61//61
f 68//68 73//73 65//65
f 73//73 68//68 76//76
f 67//67 76//76 68//68
f 67//67 75//75 76//76
f 67//67 74//74 75//75
f 67//67 66//66 74//74
f 73//73 74//74 65//65
f 66//66 65//65 74//74
f 72//72 69//69 77//77
f 77//77 80//80 72//72
f 71//71 72//72 80//80
f 71//71 80//80 79//79
f 71//71 79//79 78//78
f 71//71 78//78 70//70
f 77//77 69//69 78//78
f 70//70 78//78 69//69
f 76//76 81//81 73//73
f 81//81 76//76 84//84
f 75//75 84//84 76//76
f 75//75 83//83 84//84
f 75//75 82//82 83//83
f 75//75 74//74 82//82
f 81//81 82//82 73//73
f 74//74 73//73 82//82
f 80//80 77//77 85//85
f 85//85 88//88 80//80
f 79//79 80//80 88//88
f 79//79 88//88 87//87
f 79//79 87//87 86//86
f 79//79 86//86 78//78
f 85//85 77//77 86//86
f 78//78 86//86 77//77
f 84//84 89//89 81//81
f 89//89 84//84 92//92
f 83//83 92//92 84//84
f 83//83 91//91 92//92
f 83//83 90//90 91//91
f 83//83 82//82 90//90
f 89//89 90//90 81//81
f 82//82 81//81 90//90
f 88//88 85//85 93//93
f 93//93 96//96 88//88
f 87//87 88//88 96//96
f 87//87 96//96 95//95
f 87//87 95//95 94//94
f 87//87 94//94 86//86
f 93//93 85//85 94//94
f 86//86 94//94 85//85
f 92//92 97//97 89//89
f 97//97 92//92 100//100
f 91//91 100//100 92//92
f 91//91 99//99 100//100
f 91//91 98//98 99//99
f 91//91 90//90 98//98
f 97//97 98//98 89//89
f 90//90 89//89 98//98
f 96//96 93//93 101//101
f 101//101 104//104 96//96
f 95//95 96//96 104//104
f 95//95 104//104 103//103
f 95//95 103//103 102//102
f 95//95 102//102 94//94
f 101//101 93//93 102//102
f 94//94 102//102 93//93
f 100//100 105//105 97//97
f 105//105 100//100 108//108
f 99//99 108//108 100//100
f 99//99 107//107 108//108
f 99//99 106//106 107//107
f 99//99 98//98 106//106
f 105//105 106//106 97//97
f 98//98 97//97 106//106
f 104//104 101//101 109//109
f 109//109 112//112 104//104
f 103//103 104//104 112//112
f 103//103 112//112 111//111
f 103//103 111//111 110//110
f 103//103 110//110 102//102
f 109//109 101//101 110//110
f 102//102 110//110 101//101
f 108//108 113//113 105//105
f 113//113 108//108 116//116
f 107//107 116//116 108//108
f 107//107 115//115 116//116
f 107//107 114//114 115//115
f 107//107 106//106 114//114
f 113//113 114//114 105//105
f 106//106 105//105 114//114
f 112//112 109//109 117//117
f 117//117 120//120 112//112
f 111//111 112//112 120//120
f 111//111 120//120 119//119
f 111//111 119//119 118//118
f 111//111 118//118 110//110
f 117//117 109//109 118//118
f 110//110 118//118 109//109
f 116//116 121//121 113//113
f 121//121 116//116 124//124
f 115//115 124//124 116//116
f 115//115 123//123 124//124
f 115//115 122//122 123//123
f 115//115 114//114 122//122
f 121//121 122//122 113//113
f 114//114 113//113 122//122
f 121//121 124//124 122//122
f 123//123 122//122 124//124
f 120//120 117//117 125//125
f 125//125 128//128 120//120
f 119//119 120//120 128//128
f 119//119 128//128 127//127
f 119//119 127//127 126//126
f 119//119 126//126 118//118
f 125//125 117//117 126//126
f 118//118 126//126 117//117
f 125//125 126//126 128//128
f 127//127 128//128 126//126
f 129//129 5//5 8//8
f 129//129 8//8 132//132
f 4//4 132//132 8//8
f 4//4 131//131 132//132
f 4//4 130//130 131//131
f 4//4 1//1 130//130
f 129//129 130//130 5//5
f 1//1 5//5 130//130
f 133//133 129//129 132//132
f 133//133 132//132 136//136
f 131//131 136//136 132//132
f 131//131 135//135 136//136
f 131//131 134//134 135//135
f 131//131 130//130 134//134
f 133//133 134//134 129//129
f 130//130 129//129 134//134
f 137//137 133//133 136//136
f 137//137 136//136 140//140
f 135//135 140//140 136//136
f 135//135 139//139 140//140
f 135//135 138//138 139//139
f 135//135 134//134 138//138
f 137//137 138//138 133//133
f 134//134 133//133 138//138
f 141//141 137//137 140//140
f 141//141 140//140 144//144
f 139//139 144//144 140//140
f 139//139 143//143 144//144
f 139//139 142//142 143//143
f 139//139 138//138 142//142
f 141//141 142//142 137//137
f 138//138 137//137 142//142
f 145//145 141//141 144//144
f 145//145 144//144 148//148
f 143//143 148//148 144//144
f 143//143 147//147 148//148
f 143//143 146//146 147//147
f 143//143 142//142 146//146
f 145//145 146//146 141//141
f 142//142 141//141 146//146
f 149//149 145//145 148//148
f 149//149 148//148 152//152
f 147//147 152//152 148//148
f 147//147 151//151 152//152
f 147//147 150//150 151//151
f 147//147 146//146 150//150
f 149//149 150//150 145//145
f 146//146 145//145 150//150
f 153//153 149//149 152//152
f 153//153 152//152 156//156
f 151//151 156//156 152//152
f 151//151 155//155 156//156
f 151//151 154//154 155//155
f 151//151 150//150 154//154
f 153//153 154//154 149//149
f 150//150 149//149 154//154
f 157//157 153//153 156//156
f 157//157 156//156 160//160
f 155//155 160//160 156//156
f 155//155 159//159 160//160
f 155//155 158//158 159//159
f 155//155 154//154 158//158
f 157//157 158//158 153//153
f 154//154 153//153 158//158
f 161//161 157//157 160//160
f 161//161 160//160 164//164
f 159//159 164//164 160//160
f 159//159 163//163 164//164
f 159//159 162//162 163//163
f 159//159 158//158 162//162
f 161//161 162//162 157//157
f 158//158 157//157 162//162
f 165//165 161//161 164//164
f 165//165 164//164 168//168
f 163//163 168//168 164//164
f 163//163 167//167 168//168
f 163//163 166//166 167//167
f 163//163 162//162 166//166
f 165//165 166//166 161//161
f 162//162 161//161 166//166
f 165//165 168//168 166//166
f 167//167 166//166 168//168
