# Vertices
v -3.000000 -1.500000 3.000000
v -3.000000 -1.500000 -3.000000
v -3.000000 1.500000 -3.000000
v -3.000000 1.500000 3.000000
v 3.000000 -1.500000 3.000000
v 3.000000 -1.500000 -3.000000
v 3.000000 1.500000 -3.000000
v 3.000000 1.500000 3.000000
v -4.015314 -1.078497 2.765673
v -4.015314 -1.098126 -3.194501
v -4.015314 2.071252 -3.000000
v -4.015314 1.041984 2.405090
v 4.015314 -1.078497 2.765673
v 4.015314 -1.098126 -3.194501
v 4.015314 2.071252 -3.000000
v 4.015314 1.041984 2.405090
v -5.144533 -1.078497 2.765673
v -5.144533 -1.098126 -3.194501
v -5.144533 1.580203 -2.895444
v -5.144533 0.830143 2.258894
v 5.144533 -1.078497 2.765673
v 5.144533 -1.098126 -3.194501
v 5.144533 1.580203 -2.895444
v 5.144533 0.830143 2.258894
v -5.803494 -0.806339 2.199823
v -5.803494 -0.583328 -2.639033
v -5.803494 1.580203 -2.576519
v -5.803494 0.830143 2.549968
v 5.803494 -0.806339 2.199823
v 5.803494 -0.583328 -2.639033
v 5.803494 1.580203 -2.576519
v 5.803494 0.830143 2.549968
v -6.234593 -1.043358 2.199823
v -6.234593 -0.537715 -2.639033
v -6.234593 1.087249 -2.576519
v -6.234593 0.381906 2.064485
v 6.234593 -1.043358 2.199823
v 6.234593 -0.537715 -2.639033
v 6.234593 1.087249 -2.576519
v 6.234593 0.381906 2.064485
v -6.931843 -1.043358 2.127054
v -6.931843 -0.537715 -2.361840
v -6.931843 0.496478 -1.981921
v -6.931843 0.381906 1.780388
v 6.931843 -1.043358 2.127054
v 6.931843 -0.537715 -2.361840
v 6.931843 0.496478 -1.981921
v 6.931843 0.381906 1.780388
v -7.442650 -1.043358 2.127054
v -7.442650 -0.537715 -2.028669
v -7.442650 0.100000 -1.981921
v -7.442650 0.125257 1.238892
v 7.442650 -1.043358 2.127054
v 7.442650 -0.537715 -2.028669
v 7.442650 0.100000 -1.981921
v 7.442650 0.125257 1.238892
v -8.138829 -1.043358 2.127054
v -8.138829 -0.100000 -1.889486
v -8.138829 0.100000 -1.981921
v -8.138829 0.254002 1.238892
v 8.138829 -1.043358 2.127054
v 8.138829 -0.100000 -1.889486
v 8.138829 0.100000 -1.981921
v 8.138829 0.254002 1.238892
v -8.577810 -1.017576 2.127054
v -8.577810 -0.100000 -1.889486
v -8.577810 0.100000 -1.981921
v -8.577810 0.254002 1.062831
v 8.577810 -1.017576 2.127054
v 8.577810 -0.100000 -1.889486
v 8.577810 0.100000 -1.981921
v 8.577810 0.254002 1.062831
v -8.959771 -0.985971 1.853413
v -8.959771 -0.100000 -1.502408
v -8.959771 0.100000 -1.981921
v -8.959771 0.254002 0.742460
v 8.959771 -0.985971 1.853413
v 8.959771 -0.100000 -1.502408
v 8.959771 0.100000 -1.981921
v 8.959771 0.254002 0.742460
v -9.876068 -0.795993 1.518503
v -9.876068 -0.100000 -1.502408
v -9.876068 0.100000 -1.981921
v -9.876068 0.100000 0.361021
v 9.876068 -0.795993 1.518503
v 9.876068 -0.100000 -1.502408
v 9.876068 0.100000 -1.981921
v 9.876068 0.100000 0.361021
v -10.230700 -0.795993 1.089547
v -10.230700 -0.100000 -1.433430
v -10.230700 0.100000 -1.926072
v -10.230700 0.100000 0.361021
v 10.230700 -0.795993 1.089547
v 10.230700 -0.100000 -1.433430
v 10.230700 0.100000 -1.926072
v 10.230700 0.100000 0.361021
v -10.786607 -0.263799 1.089547
v -10.786607 -0.100000 -1.433430
v -10.786607 0.574093 -1.926072
v -10.786607 0.100000 0.361021
v 10.786607 -0.263799 1.089547
v 10.786607 -0.100000 -1.433430
v 10.786607 0.574093 -1.926072
v 10.786607 0.100000 0.361021
v -11.445953 -0.671917 1.089547
v -11.445953 -0.100000 -1.433430
v -11.445953 0.574093 -1.926072
v -11.445953 0.531684 0.289132
v 11.445953 -0.671917 1.089547
v 11.445953 -0.100000 -1.433430
v 11.445953 0.574093 -1.926072
v 11.445953 0.531684 0.289132
v -12.192177 -0.449144 1.089547
v -12.192177 -0.100000 -1.399152
v -12.192177 0.533973 -1.511087
v -12.192177 0.531684 0.289132
v 12.192177 -0.449144 1.089547
v 12.192177 -0.100000 -1.399152
v 12.192177 0.533973 -1.511087
v 12.192177 0.531684 0.289132
v -12.761927 -0.100000 0.968456
v -12.761927 -0.100000 -1.399152
v -12.761927 0.533973 -1.511087
v -12.761927 0.531684 0.273330
v 12.761927 -0.100000 0.968456
v 12.761927 -0.100000 -1.399152
v 12.761927 0.533973 -1.511087
v 12.761927 0.531684 0.273330
v 3.000000 -1.000000 3.382812
v -3.000000 -1.000000 3.382812
v -3.000000 1.720960 3.382812
v 3.000000 1.720960 3.382812
v 2.525413 -1.000000 4.043339
v -2.525413 -1.000000 4.043339
v -2.596606 1.720960 4.043339
v 2.596606 1.720960 4.043339
v 2.464382 -1.000000 5.144295
v -2.464382 -1.000000 5.144295
v -2.596606 1.720960 5.144295
v 2.596606 1.720960 5.144295
v 2.464382 -1.000000 5.729646
v -2.464382 -1.000000 5.729646
v -2.049196 1.665038 5.729646
v 2.049196 1.665038 5.729646
v 2.464382 -1.000000 6.767785
v -2.464382 -1.000000 6.767785
v -2.166533 1.378323 6.767785
v 2.166533 1.378323 6.767785
v 2.109787 -1.000000 7.707181
v -2.109787 -1.000000 7.707181
v -2.166533 1.378323 7.707181
v 2.166533 1.378323 7.707181
v 2.109787 -1.000000 8.084391
v -2.109787 -1.000000 8.084391
v -2.166533 1.287207 8.084391
v 2.166533 1.287207 8.084391
v 1.522715 -1.000000 8.474014
v -1.522715 -1.000000 8.474014
v -2.085397 1.371694 8.474014
v 2.085397 1.371694 8.474014
v 1.064919 -1.000000 9.396381
v -1.064919 -1.000000 9.396381
v -1.777605 1.371694 9.396381
v 1.777605 1.371694 9.396381
v 1.064919 -1.000000 10.507252
v -1.064919 -1.000000 10.507252
v -1.712930 0.930873 10.507252
v 1.712930 0.930873 10.507252
# Vertex Normals
vn -3.000000 -1.500000 3.000000
vn -3.000000 -1.500000 -3.000000
vn -3.000000 1.500000 -3.000000
vn -3.000000 1.500000 3.000000
vn 3.000000 -1.500000 3.000000
vn 3.000000 -1.500000 -3.000000
vn 3.000000 1.500000 -3.000000
vn 3.000000 1.500000 3.000000
vn 0.000000 -1.312650 3.021607
vn 0.000000 -1.332279 -2.938566
vn 0.000000 1.837098 -2.744066
vn 0.000000 0.807831 2.661025
vn 0.000000 -1.312650 3.021607
vn 0.000000 -1.332279 -2.938566
vn 0.000000 1.837098 -2.744066
vn 0.000000 0.807831 2.661025
vn 0.000000 -1.136927 3.032017
vn 0.000000 -1.156557 -2.928156
vn 0.000000 1.521772 -2.629099
vn 0.000000 0.771712 2.525239
vn 0.000000 -1.136927 3.032017
vn 0.000000 -1.156557 -2.928156
vn 0.000000 1.521772 -2.629099
vn 0.000000 0.771712 2.525239
vn 0.000000 -1.061509 2.316263
vn 0.000000 -0.838498 -2.522593
vn 0.000000 1.325033 -2.460079
vn 0.000000 0.574973 2.666408
vn 0.000000 -1.061509 2.316263
vn 0.000000 -0.838498 -2.522593
vn 0.000000 1.325033 -2.460079
vn 0.000000 0.574973 2.666408
vn 0.000000 -1.015378 2.437634
vn 0.000000 -0.509735 -2.401222
vn 0.000000 1.115229 -2.338708
vn 0.000000 0.409885 2.302296
vn 0.000000 -1.015378 2.437634
vn 0.000000 -0.509735 -2.401222
vn 0.000000 1.115229 -2.338708
vn 0.000000 0.409885 2.302296
vn 0.000000 -0.867686 2.236134
vn 0.000000 -0.362043 -2.252760
vn 0.000000 0.672150 -1.872841
vn 0.000000 0.557578 1.889468
vn 0.000000 -0.867686 2.236134
vn 0.000000 -0.362043 -2.252760
vn 0.000000 0.672150 -1.872841
vn 0.000000 0.557578 1.889468
vn 0.000000 -0.704404 2.288215
vn 0.000000 -0.198761 -1.867508
vn 0.000000 0.438954 -1.820760
vn 0.000000 0.464211 1.400053
vn 0.000000 -0.704404 2.288215
vn 0.000000 -0.198761 -1.867508
vn 0.000000 0.438954 -1.820760
vn 0.000000 0.464211 1.400053
vn 0.000000 -0.846019 2.253419
vn 0.000000 0.097339 -1.763121
vn 0.000000 0.297339 -1.855556
vn 0.000000 0.451341 1.365258
vn 0.000000 -0.846019 2.253419
vn 0.000000 0.097339 -1.763121
vn 0.000000 0.297339 -1.855556
vn 0.000000 0.451341 1.365258
vn 0.000000 -0.826682 2.297435
vn 0.000000 0.090893 -1.719106
vn 0.000000 0.290893 -1.811540
vn 0.000000 0.444896 1.233212
vn 0.000000 -0.826682 2.297435
vn 0.000000 0.090893 -1.719106
vn 0.000000 0.290893 -1.811540
vn 0.000000 0.444896 1.233212
vn 0.000000 -0.802979 2.075527
vn 0.000000 0.082992 -1.280294
vn 0.000000 0.282992 -1.759807
vn 0.000000 0.436995 0.964574
vn 0.000000 -0.802979 2.075527
vn 0.000000 0.082992 -1.280294
vn 0.000000 0.282992 -1.759807
vn 0.000000 0.436995 0.964574
vn 0.000000 -0.621995 1.919704
vn 0.000000 0.073998 -1.101207
vn 0.000000 0.273998 -1.580720
vn 0.000000 0.273998 0.762222
vn 0.000000 -0.621995 1.919704
vn 0.000000 0.073998 -1.101207
vn 0.000000 0.273998 -1.580720
vn 0.000000 0.273998 0.762222
vn 0.000000 -0.621995 1.566780
vn 0.000000 0.073998 -0.956197
vn 0.000000 0.273998 -1.448839
vn 0.000000 0.273998 0.838255
vn 0.000000 -0.621995 1.566780
vn 0.000000 0.073998 -0.956197
vn 0.000000 0.273998 -1.448839
vn 0.000000 0.273998 0.838255
vn 0.000000 -0.341373 1.566780
vn 0.000000 -0.177573 -0.956197
vn 0.000000 0.496519 -1.448839
vn 0.000000 0.022427 0.838255
vn 0.000000 -0.341373 1.566780
vn 0.000000 -0.177573 -0.956197
vn 0.000000 0.496519 -1.448839
vn 0.000000 0.022427 0.838255
vn 0.000000 -0.755382 1.584753
vn 0.000000 -0.183465 -0.938224
vn 0.000000 0.490628 -1.430866
vn 0.000000 0.448219 0.784338
vn 0.000000 -0.755382 1.584753
vn 0.000000 -0.183465 -0.938224
vn 0.000000 0.490628 -1.430866
vn 0.000000 0.448219 0.784338
vn 0.000000 -0.578272 1.472437
vn 0.000000 -0.229128 -1.016262
vn 0.000000 0.404845 -1.128197
vn 0.000000 0.402556 0.672022
vn 0.000000 -0.578272 1.472437
vn 0.000000 -0.229128 -1.016262
vn 0.000000 0.404845 -1.128197
vn 0.000000 0.402556 0.672022
vn 0.000000 -0.316414 1.385569
vn 0.000000 -0.316414 -0.982038
vn 0.000000 0.317559 -1.093974
vn 0.000000 0.315270 0.690443
vn 0.000000 -0.316414 1.385569
vn 0.000000 -0.316414 -0.982038
vn 0.000000 0.317559 -1.093974
vn 0.000000 0.315270 0.690443
vn 3.000000 -1.360480 -0.191406
vn -3.000000 -1.360480 -0.191406
vn -3.000000 1.360480 -0.191406
vn 3.000000 1.360480 -0.191406
vn 2.525413 -1.360480 -0.330264
vn -2.525413 -1.360480 -0.330264
vn -2.596606 1.360480 -0.330264
vn 2.596606 1.360480 -0.330264
vn 2.464382 -1.360480 -0.550478
vn -2.464382 -1.360480 -0.550478
vn -2.596606 1.360480 -0.550478
vn 2.596606 1.360480 -0.550478
vn 2.464382 -1.332519 -0.292675
vn -2.464382 -1.332519 -0.292675
vn -2.049196 1.332519 -0.292675
vn 2.049196 1.332519 -0.292675
vn 2.464382 -1.189161 -0.519070
vn -2.464382 -1.189161 -0.519070
vn -2.166533 1.189161 -0.519070
vn 2.166533 1.189161 -0.519070
vn 2.109787 -1.189161 -0.469698
vn -2.109787 -1.189161 -0.469698
vn -2.166533 1.189161 -0.469698
vn 2.166533 1.189161 -0.469698
vn 2.109787 -1.143603 -0.188604
vn -2.109787 -1.143603 -0.188604
vn -2.166533 1.143603 -0.188604
vn 2.166533 1.143603 -0.188604
vn 1.522715 -1.185847 -0.194812
vn -1.522715 -1.185847 -0.194812
vn -2.085397 1.185847 -0.194812
vn 2.085397 1.185847 -0.194812
vn 1.064919 -1.185847 -0.461184
vn -1.064919 -1.185847 -0.461184
vn -1.777605 1.185847 -0.461184
vn 1.777605 1.185847 -0.461184
vn 1.064919 -0.965436 -0.555435
vn -1.064919 -0.965436 -0.555435
vn -1.712930 0.965436 -0.555435
vn 1.712930 0.965436 -0.555435
# Faces
f 4//4 7//7 3//3
f 7//7 4//4 8//8
f 2//2 3//3 7//7
f 2//2 7//7 6//6
f 1//1 2//2 6//6
f 1//1 6//6 5//5
f 4//4 9//9 1//1
f 9//9 4//4 12//12
f 3//3 12//12 4//4
f 3//3 11//11 12//12
f 3//3 10//10 11//11
f 3//3 2//2 10//10
f 9//9 10//10 1//1
f 2//2 1//1 10//10
f 8//8 5//5 13//13
f 13//13 16//16 8//8
f 7//7 8//8 16//16
f 7//7 16//16 15//15
f 7//7 15//15 14//14
f 7//7 14//14 6//6
f 13//13 5//5 14//14
f 6//6 14//14 5//5
f 12//12 17//17 9//9
f 17//17 12//12 20//20
f 11//11 20//20 12//12
f 11//11 19//19 20//20
f 11//11 18//18 19//19
f 11//11 10//10 18//18
f 17//17 18//18 9//9
f 10//10 9//9 18//18
f 16//16 13//13 21//21
f 21//21 24//24 16//16
f 15//15 16//16 24//24
f 15//15 24//24 23//23
f 15//15 23//23 22//22
f 15//15 22//22 14//14
f 21//21 13//13 22//22
f 14//14 22//22 13//13
f 20//20 25//25 17//17
f 25//25 20//20 28//28
f 19//19 28//28 20//20
f 19//19 27//27 28//28
f 19//19 26//26 27//27
f 19//19 18//18 26//26
f 25//25 26//26 17//17
f 18//18 17//17 26//26
f 24//24 21//21 29//29
f 29//29 32//32 24//24
f 23//23 24//24 32//32
f 23//23 32//32 31//31
f 23//23 31//31 30//30
f 23//23 30//30 22//22
f 29//29 21//21 30//30
f 22//22 30//30 21//21
f 28//28 33//33 25//25
f 33//33 28//28 36//36
f 27//27 36//36 28//28
f 27//27 35//35 36//36
f 27//27 34//34 35//35
f 27//27 26//26 34//34
f 33//33 34//34 25//25
f 26//26 25//25 34//34
f 32//32 29//29 37//37
f 37//37 40//40 32//32
f 31//31 32//32 40//40
f 31//31 40//40 39//39
f 31//31 39//39 38//38
f 31//31 38//38 30//30
f 37//37 29//29 38//38
f 30//30 38//38 29//29
f 36//36 41//41 33//33
f 41//41 36//36 44//44
f 35//35 44//44 36//36
f 35//35 43//43 44//44
f 35//35 42//42 43//43
f 35//35 34//34 42//42
f 41//41 42//42 33//33
f 34//34 33//33 42//42
f 40//40 37//37 45//45
f 45//45 48//48 40//40
f 39//39 40//40 48//48
f 39//39 48//48 47//47
f 39//39 47//47 46//46
f 39//39 46//46 38//38
f 45//45 37//37 46//46
f 38//38 46//46 37//37
f 44//44 49//49 41//41
f 49//49 44//44 52//52
f 43//43 52//52 44//44
f 43//43 51//51 52//52
f 43//43 50//50 51//51
f 43//43 42//42 50//50
f 49//49 50//50 41//41
f 42//42 41//41 50//50
f 48//48 45//45 53//53
f 53//53 56//56 48//48
f 47//47 48//48 56//56
f 47//47 56//56 55//55
f 47//47 55//55 54//54
f 47//47 54//54 46//46
f 53//53 45//45 54//54
f 46//46 54//54 45//45
f 52//52 57//57 49//49
f 57//57 52//52 60//60
f 51//51 60//60 52//52
f 51//51 59//59 60//60
f 51//51 58//58 59//59
f 51//51 50//50 58//58
f 57//57 58//58 49//49
f 50//50 49//49 58//58
f 56//56 53//53 61//61
f 61//61 64//64 56//56
f 55//55 56//56 64//64
f 55//55 64//64 63//63
f 55//55 63//63 62//62
f 55//55 62//62 54//54
f 61//61 53//53 62//62
f 54//54 62//62 53//53
f 60//60 65//65 57//57
f 65//65 60//60 68//68
f 59//59 68//68 60//60
f 59//59 67//67 68//68
f 59//59 66//66 67//67
f 59//59 58//58 66//66
f 65//65 66//66 57//57
f 58//58 57//57 66//66
f 64//64 61//61 69//69
f 69//69 72//72 64//64
f 63//63 64//64 72//72
f 63//63 72//72 71//71
f 63//63 71//71 70//70
f 63//63 70//70 62//62
f 69//69 61//61 70//70
f 62//62 70//70 61//61
f 68//68 73//73 65//65
f 73//73 68//68 76//76
f 67//67 76//76 68//68
f 67//67 75//75 76//76
f 67//67 74//74 75//75
f 67//67 66//66 74//74
f 73//73 74//74 65//65
f 66//66 65//65 74//74
f 72//72 69//69 77//77
f 77//77 80//80 72//72
f 71//71 72//72 80//80
f 71//71 80//80 79//79
f 71//71 79//79 78//78
f 71//71 78//78 70//70
f 77//77 69//69 78//78
f 70//70 78//78 69//69
f 76//76 81//81 73//73
f 81//81 76//76 84//84
f 75//75 84//84 76//76
f 75//75 83//83 84//84
f 75//75 82//82 83//83
f 75//75 74//74 82//82
f 81//81 82//82 73//73
f 74//74 73//73 82//82
f 80//80 77//77 85//85
f 85//85 88//88 80//80
f 79//79 80//80 88//88
f 79//79 88//88 87//87
f 79//79 87//87 86//86
f 79//79 86//86 78//78
f 85//85 77//77 86//86
f 78//78 86//86 77//77
f 84//84 89//89 81//81
f 89//89 84//84 92//92
f 83//83 92//92 84//84
f 83//83 91//91 92//92
f 83//83 90//90 91//91
f 83//83 82//82 90//90
f 89//89 90//90 81//81
f 82//82 81//81 90//90
f 88//88 85//85 93//93
f 93//93 96//96 88//88
f 87//87 88//88 96//96
f 87//87 96//96 95//95
f 87//87 95//95 94//94
f 87//87 94//94 86//86
f 93//93 85//85 94//94
f 86//86 94//94 85//85
f 92//92 97//97 89//89
f 97//97 92//92 100//100
f 91//91 100//100 92//92
f 91//91 99//99 100//100
f 91//91 98//98 99//99
f 91//91 90//90 98//98
f 97//97 98//98 89//89
f 90//90 89//89 98//98
f 96//96 93//93 101//101
f 101//101 104//104 96//96
f 95//95 96//96 104//104
f 95//95 104//104 103//103
f 95//95 103//103 102//102
f 95//95 102//102 94//94
f 101//101 93//93 102//102
f 94//94 102//102 93//93
f 100//100 105//105 97//97
f 105//105 100//100 108//108
f 99//99 108//108 100//100
f 99//99 107//107 108//108
f 99//99 106//106 107//107
f 99//99 98//98 106//106
f 105//105 106//106 97//97
f 98//98 97//97 106//106
f 104//104 101//101 109//109
f 109//109 112//112 104//104
f 103//103 104//104 112//112
f 103//103 112//112 111//111
f 103//103 111//111 110//110
f 103//103 110//110 102//102
f 109//109 101//101 110//110
f 102//102 110//110 101//101
f 108//108 113//113 105//105
f 113//113 108//108 116//116
f 107//107 116//116 108//108
f 107//107 115//115 116//116
f 107//107 114//114 115//115
f 107//107 106//106 114//114
f 113//113 114//114 105//105
f 106//106 105//105 114//114
f 112//112 109//109 117//117
f 117//117 120//120 112//112
f 111//111 112//112 120//120
f 111//111 120//120 119//119
f 111//111 119//119 118//118
f 111//111 118//118 110//110
f 117//117 109//109 118//118
f 110//110 118//118 109//109
f 116//116 121//121 113//113
f 121//121 116//116 124//124
f 115//115 124//124 116//116
f 115//115 123//123 124//124
f 115//115 122//122 123//123
f 115//115 114//114 122//122
f 121//121 122//122 113//113
f 114//114 113//113 122//122
f 121//121 124//124 122//122
f 123//123 122//122 124//124
f 120//120 117//117 125//125
f 125//125 128//128 120//120
f 119//119 120//120 128//128
f 119//119 128//128 127//127
f 119//119 127//127 126//126
f 119//119 126//126 118//118
f 125//125 117//117 126//126
f 118//118 126//126 117//117
f 125//125 126//126 128//128
f 127//127 128//128 126//126
f 129//129 5//5 8//8
f 129//129 8//8 132//132
f 4//4 132//132 8//8
f 4//4 131//131 132//132
f 4//4 130//130 131//131
f 4//4 1//1 130//130
f 129//129 130//130 5//5
f 1//1 5//5 130//130
f 133//133 129//129 132//132
f 133//133 132//132 136//136
f 131//131 136//136 132//132
f 131//131 135//135 136//136
f 131//131 134//134 135//135
f 131//131 130//130 134//134
f 133//133 134//134 129//129
f 130//130 129//129 134//134
f 137//137 133//133 136//136
f 137//137 136//136 140//140
f 135//135 140//140 136//136
f 135//135 139//139 140//140
f 135//135 138//138 139//139
f 135//135 134//134 138//138
f 137//137 138//138 133//133
f 134//134 133//133 138//138
f 141//141 137//137 140//140
f 141//141 140//140 144//144
f 139//139 144//144 140//140
f 139//139 143//143 144//144
f 139//139 142//142 143//143
f 139//139 138//138 142//142
f 141//141 142//142 137//137
f 138//138 137//137 142//142
f 145//145 141//141 144//144
f 145//145 144//144 148//148
f 143//143 148//148 144//144
f 143//143 147//147 148//148
f 143//143 146//146 147//147
f 143//143 142//142 146//146
f 145//145 146//146 141//141
f 142//142 141//141 146//146
f 149//149 145//145 148//148
f 149//149 148//148 152//152
f 147//147 152//152 148//148
f 147//147 151//151 152//152
f 147//147 150//150 151//151
f 147//147 146//146 150//150
f 149//149 150//150 145//145
f 146//146 145//145 150//150
f 153//153 149//149 152//152
f 153//153 152//152 156//156
f 151//151 156//156 152//152
f 151//151 155//155 156//156
f 151//151 154//154 155//155
f 151//151 150//150 154//154
f 153//153 154//154 149//149
f 150//150 149//149 154//154
f 157//157 153//153 156//156
f 157//157 156//156 160//160
f 155//155 160//160 156//156
f 155//155 159//159 160//160
f 155//155 158//158 159//159
f 155//155 154//154 158//158
f 157//157 158//158 153//153
f 154//154 153//153 158//158
f 161//161 157//157 160//160
f 161//161 160//160 164//164
f 159//159 164//164 160//160
f 159//159 163//163 164//164
f 159//159 162//162 163//163
f 159//159 158//158 162//162
f 161//161 162//162 157//157
f 158//158 157//157 162//162
f 165//165 161//161 164//164
f 165//165 164//164 168//168
f 163//163 168//168 164//164
f 163//163 167//167 168//168
f 163//163 166//166 167//167
f 163//163 162//162 166//166
f 165//165 166//166 161//161
f 162//162 161//161 166//166
f 165//165 168//168 166//166
f 167//167 166//166 168//168
